<svg xmlns="http://www.w3.org/2000/svg" xmlns:xlink="http://www.w3.org/1999/xlink" width="500" zoomAndPan="magnify" viewBox="0 0 375 374.999991" height="500" preserveAspectRatio="xMidYMid meet" version="1.0"><defs><clipPath id="85a19a4018"><path d="M 81.851562 147.617188 L 293.351562 147.617188 L 293.351562 227.117188 L 81.851562 227.117188 Z M 81.851562 147.617188 " clip-rule="nonzero"/></clipPath></defs><g clip-path="url(#85a19a4018)"><path fill="#000000" d="M 292.609375 203.777344 C 292.3125 201.511719 291.945312 199.097656 292.902344 196.933594 C 293.074219 196.59375 293.054688 196.238281 293.011719 195.882812 C 292.765625 193.710938 292.429688 191.558594 291.988281 189.417969 C 291.75 188.28125 291.324219 187.238281 290.707031 186.261719 C 288.878906 183.457031 287.050781 180.578125 284.578125 178.285156 C 282.695312 176.609375 280.722656 175.050781 278.621094 173.652344 C 270.023438 167.949219 258.699219 167.445312 248.785156 167.492188 C 243.996094 167.566406 240.140625 167.84375 235.753906 167.214844 C 232.996094 166.683594 230.179688 166.375 227.441406 165.789062 C 227.308594 165.710938 227.316406 165.585938 227.402344 165.460938 C 227.929688 164.265625 226.882812 163.253906 225.84375 162.832031 C 224.601562 162.296875 223.3125 161.941406 221.941406 161.984375 C 221.425781 162.003906 220.976562 161.863281 220.558594 161.578125 C 219.699219 160.980469 218.851562 160.371094 217.988281 159.777344 C 211.414062 155.679688 204.640625 151.128906 196.960938 149.507812 C 183.070312 147.234375 168.863281 147.390625 154.84375 148.199219 C 151.464844 148.53125 148.074219 149.019531 144.816406 150.007812 C 143.660156 150.363281 142.511719 150.742188 141.394531 151.203125 C 141.082031 151.332031 140.78125 151.359375 140.4375 151.316406 C 139.660156 151.21875 138.875 151.148438 138.089844 151.125 C 134.851562 151.230469 131.324219 150.75 128.332031 152.234375 C 124.535156 154.484375 121.160156 157.371094 117.679688 160.070312 C 116.585938 160.855469 115.546875 161.945312 114.097656 161.929688 C 111.609375 161.9375 109.125 161.882812 106.636719 161.933594 C 102.230469 162.273438 90.5625 161.71875 87.726562 164.816406 C 80.511719 172.660156 81.289062 184.46875 83.050781 194.246094 C 83.164062 194.789062 83.21875 195.335938 83.167969 195.894531 C 83.015625 197.691406 83.1875 199.476562 83.292969 201.269531 C 83.945312 208.351562 86.917969 217.015625 94.792969 218.589844 C 111.304688 221.222656 128.101562 218.234375 144.707031 219.355469 C 151.546875 219.847656 158.425781 220.71875 164.96875 222.835938 C 165.5 223.015625 165.992188 223.261719 166.460938 223.566406 C 168.445312 224.917969 170.71875 225.75 173.074219 226.179688 C 179.988281 227.382812 187.054688 227.128906 194.035156 226.847656 C 201.390625 226.5 208.746094 226.121094 216.101562 225.765625 C 227.835938 225.101562 239.5625 224.40625 251.300781 223.789062 C 257.132812 223.351562 263.039062 223.511719 268.8125 222.480469 C 275.210938 221.503906 281.140625 217.742188 284.191406 211.976562 C 284.3125 211.75 284.453125 211.472656 284.75 211.5 C 286.96875 211.523438 289.210938 211.96875 291.40625 211.492188 C 292 211.316406 292.769531 211.089844 292.890625 210.386719 C 293.109375 209.402344 293.148438 208.382812 293.320312 207.390625 C 293.535156 206.113281 292.660156 205.027344 292.609375 203.777344 Z M 289.554688 202.011719 C 289.578125 201.070312 289.597656 199.378906 290.375 198.722656 C 290.394531 198.777344 290.449219 198.847656 290.429688 198.886719 C 289.84375 200.160156 289.925781 201.5625 289.9375 202.925781 C 289.898438 203.957031 290.445312 203.925781 291.289062 203.96875 C 291.398438 204.058594 291.21875 204.207031 291.128906 204.222656 C 290.664062 204.234375 289.925781 204.496094 289.746094 203.886719 C 289.597656 203.253906 289.515625 202.675781 289.554688 202.011719 Z M 287.523438 184.179688 C 287.839844 184.765625 289.78125 188.277344 289.007812 188.617188 C 286.292969 189.472656 283.496094 190.039062 280.699219 190.546875 C 275.148438 191.480469 269.574219 192.234375 263.992188 192.972656 C 263.339844 193.070312 264.003906 193.949219 263.402344 194.140625 C 263.035156 194.277344 262.664062 194.410156 262.285156 194.507812 C 256.355469 195.96875 250.410156 193.40625 244.4375 193.671875 C 237.214844 193.746094 230 195.230469 222.785156 194.199219 C 217.179688 193.554688 211.792969 191.828125 206.351562 190.433594 C 201.65625 189.335938 196.796875 188.699219 192.113281 187.722656 C 192.140625 187.703125 192.164062 187.664062 192.191406 187.664062 C 192.746094 187.667969 193.304688 187.632812 193.851562 187.6875 C 196.941406 188.003906 200.03125 188.359375 203.101562 188.84375 C 211.664062 189.992188 220.257812 190.902344 228.894531 191.226562 C 238.28125 191.644531 247.675781 191.832031 257.066406 192.089844 C 261.851562 192.308594 266.621094 192.089844 271.339844 191.207031 C 272.890625 190.863281 274.550781 190.820312 276.046875 190.332031 C 276.082031 190.285156 276.042969 190.253906 275.949219 190.25 C 272.9375 190.21875 269.925781 190.207031 266.9375 189.777344 C 266.289062 189.65625 266.152344 188.746094 265.859375 188.238281 C 265.011719 186.324219 261.910156 180.394531 259.664062 180.445312 C 255.574219 180.304688 251.480469 180.277344 247.390625 180.441406 C 246.601562 180.449219 247.054688 180.878906 247.4375 181.121094 C 248.640625 181.964844 249.84375 182.808594 251.054688 183.644531 C 252.179688 184.492188 253.433594 185.324219 254.316406 186.402344 C 254.226562 186.609375 253.882812 186.273438 253.746094 186.1875 C 251.617188 184.449219 249.367188 182.878906 247.019531 181.449219 C 246.558594 181.113281 244.65625 180.246094 246.039062 179.863281 C 248.53125 179.441406 251.070312 179.671875 253.585938 179.617188 C 255.648438 179.628906 257.710938 179.582031 259.773438 179.65625 C 261.851562 179.84375 263.003906 182.0625 264.3125 183.433594 C 264.414062 183.507812 264.902344 184.261719 264.925781 183.910156 C 264.429688 182.5 263.316406 181.382812 262.382812 180.238281 C 262.328125 180.160156 262.261719 180.066406 262.328125 179.96875 C 264.503906 179.6875 266.839844 179.925781 269.0625 179.835938 C 269.714844 179.835938 270.371094 179.851562 271.015625 180 C 272.152344 180.230469 271.316406 179.648438 271.867188 179.28125 C 272.433594 178.898438 273 178.5 273.542969 178.089844 C 274.015625 177.71875 274.128906 177.792969 274.46875 178.261719 C 275.886719 180.136719 278.277344 183.714844 280.640625 184.1875 C 282.679688 184.460938 284.820312 183.984375 286.566406 182.902344 C 286.738281 182.703125 287.386719 184.027344 287.523438 184.179688 Z M 275.726562 205.949219 C 275.773438 204.191406 275.90625 202.433594 275.910156 200.675781 C 275.90625 200.605469 275.777344 200.488281 275.707031 200.492188 C 275.320312 200.53125 274.929688 200.5625 274.539062 200.617188 C 271.464844 201.058594 268.394531 201.574219 265.296875 201.832031 C 258.886719 202.015625 252.46875 201.664062 246.054688 201.617188 C 245.742188 201.667969 244.984375 201.46875 244.917969 201.894531 C 245.039062 203.222656 245.304688 204.539062 245.4375 205.867188 C 245.523438 206.851562 245.835938 207.882812 245.648438 208.867188 C 245.167969 208.769531 245.261719 207.507812 245.148438 207.082031 C 245.035156 206.179688 244.921875 205.273438 244.8125 204.367188 C 244.691406 203.882812 244.691406 201.738281 244.28125 201.664062 C 240.34375 201.457031 236.347656 201.597656 232.425781 201.242188 C 237.917969 200.976562 243.488281 201.242188 249 201.226562 C 249 201.234375 249 201.238281 249 201.246094 C 255.238281 201.15625 261.53125 201.761719 267.734375 201.03125 C 272.964844 200.40625 278.179688 199.640625 283.398438 198.976562 C 284.289062 198.90625 285.226562 198.542969 286.105469 198.691406 C 283.242188 199.425781 280.183594 199.714844 277.242188 200.195312 C 276.9375 200.285156 276.414062 200.222656 276.335938 200.621094 C 276.175781 202.796875 276.257812 204.988281 276.042969 207.15625 C 275.546875 207.730469 275.765625 206.1875 275.726562 205.949219 Z M 223.332031 205.082031 C 223.324219 204.238281 223.363281 203.394531 223.175781 202.5625 C 223.167969 202.539062 223.203125 202.507812 223.21875 202.480469 C 223.699219 202.976562 223.464844 203.949219 223.570312 204.515625 C 223.496094 205.132812 223.550781 205.65625 223.417969 206.15625 C 223.25 205.921875 223.375 205.390625 223.332031 205.082031 Z M 204.78125 207.511719 C 204.796875 207.558594 204.757812 207.625 204.734375 207.679688 C 204.714844 207.726562 204.554688 207.628906 204.535156 207.542969 C 204.484375 207.324219 204.441406 207.105469 204.4375 207.089844 C 204.453125 206.390625 204.53125 205.921875 204.746094 205.480469 C 205.015625 205.824219 204.464844 206.855469 204.78125 207.511719 Z M 194.035156 176.128906 C 192.480469 172.453125 194.378906 172.65625 197.351562 172.859375 C 200.65625 173.300781 204.003906 173.609375 207.1875 174.636719 C 210.25 175.488281 213.132812 176.847656 216.066406 178.042969 C 218.726562 179.296875 223.628906 181.566406 225.042969 184.109375 C 225.46875 185.0625 224.507812 185.152344 223.828125 185.136719 C 223.074219 185.140625 222.320312 185.136719 221.570312 185.136719 C 218.261719 185.089844 214.972656 184.699219 211.691406 184.324219 C 205.253906 183.457031 197.136719 182.765625 194.035156 176.128906 Z M 284.171875 179.695312 C 284.496094 179.6875 285.789062 181.078125 285.839844 181.382812 C 285.835938 181.457031 285.785156 181.601562 285.683594 181.53125 C 285.109375 181.003906 284.535156 180.480469 283.96875 179.945312 C 283.925781 179.839844 284.0625 179.722656 284.171875 179.695312 Z M 275.03125 172.734375 C 275.421875 172.824219 275.773438 172.984375 276.109375 173.191406 C 278 174.429688 280.023438 175.625 281.53125 177.324219 L 281.613281 177.363281 C 282.046875 177.667969 283.414062 178.507812 283.496094 178.988281 C 283.347656 179.300781 282.914062 179.550781 282.886719 179.953125 C 282.875 180.039062 282.960938 180.160156 283.050781 180.144531 C 283.246094 180.109375 283.375 180.128906 283.585938 180.25 C 284.550781 180.8125 285.292969 181.882812 285.554688 182.488281 C 285.632812 182.886719 284.976562 183.007812 284.703125 183.140625 C 281.273438 184.25 279.9375 183.964844 277.542969 181.207031 C 276.101562 179.296875 273.148438 176.273438 273.34375 173.804688 C 273.492188 173.027344 274.246094 172.554688 275.03125 172.734375 Z M 252.160156 168.320312 C 259.480469 168.550781 266.875 169.136719 273.714844 171.945312 C 274.253906 172.234375 272.230469 172.671875 272.71875 174.796875 C 273.359375 177.671875 274.804688 176.804688 271.957031 178.476562 C 271.65625 178.652344 271.46875 179.011719 271.074219 179.035156 C 257.660156 168.082031 236.8125 168.730469 252.160156 168.320312 Z M 244.683594 169.667969 C 246.15625 169.710938 247.589844 170.078125 249.042969 170.304688 C 256.550781 171.628906 263.664062 174.792969 269.929688 179.078125 C 269.957031 179.109375 269.9375 179.21875 269.894531 179.238281 C 268.503906 179.355469 267.085938 179.21875 265.683594 179.242188 C 265.683594 179.246094 265.683594 179.25 265.683594 179.253906 C 264.472656 179.253906 263.265625 179.253906 262.054688 179.253906 C 261.738281 179.246094 261.371094 179.332031 261.117188 179.089844 C 256.332031 174.914062 250.710938 171.789062 244.664062 169.847656 C 244.625 169.824219 244.613281 169.757812 244.601562 169.710938 C 244.597656 169.699219 244.65625 169.664062 244.683594 169.667969 Z M 222.742188 162.847656 C 223.617188 162.761719 224.597656 163.050781 225.289062 163.609375 C 225.417969 163.726562 225.476562 163.894531 225.425781 164.054688 C 225.289062 164.355469 225.253906 164.773438 224.96875 164.976562 C 224.886719 164.84375 224.929688 164.664062 224.960938 164.542969 C 225.191406 163.890625 224.925781 163.683594 224.414062 163.484375 C 224.242188 163.347656 222.433594 163.089844 222.742188 162.847656 Z M 238.316406 168.871094 C 245.132812 170.574219 251.804688 173.140625 257.507812 177.28125 C 257.703125 177.460938 260.078125 178.964844 259.203125 179.085938 C 254.160156 179.105469 249.121094 179.109375 244.082031 179.265625 C 242.285156 179.375 240.207031 179.035156 238.582031 179.902344 C 238.417969 179.988281 238.382812 180.113281 238.417969 180.300781 C 238.460938 180.535156 238.382812 180.609375 238.171875 180.605469 C 237.550781 180.59375 236.929688 180.589844 236.308594 180.5625 C 233.167969 180.429688 230.027344 180.480469 226.882812 180.503906 C 226.769531 180.496094 226.742188 180.632812 226.789062 180.722656 C 227.210938 181.359375 228.445312 182.121094 228.628906 182.828125 C 228.601562 182.972656 228.460938 183.105469 228.289062 183 C 224.953125 181.992188 221.921875 180.292969 218.804688 178.777344 C 218.605469 178.675781 218.414062 178.550781 218.21875 178.429688 C 218.199219 178.414062 218.179688 178.363281 218.1875 178.347656 C 218.28125 178.25 218.441406 178.308594 218.558594 178.320312 C 219.59375 178.628906 220.632812 178.914062 221.648438 179.285156 C 223.289062 179.890625 222.941406 179.882812 224.894531 179.816406 C 229.015625 179.714844 233.144531 179.890625 237.265625 179.746094 C 237.933594 179.738281 238.523438 179.40625 239.128906 179.179688 C 239.617188 178.976562 240.125 178.875 240.652344 178.824219 C 242.871094 178.605469 245.132812 178.769531 247.335938 178.550781 C 245.789062 178.160156 244.152344 178.207031 242.5625 178.066406 C 238.382812 177.75 234.757812 175.324219 230.800781 174.121094 C 223.152344 171.449219 215.234375 169.039062 207.105469 168.535156 C 206.90625 168.660156 207.445312 168.761719 207.660156 168.839844 C 211.367188 169.78125 230.089844 176.046875 235.546875 178.65625 C 235.75 178.792969 236.476562 179.035156 236.460938 179.292969 C 232.511719 179.410156 228.472656 179.035156 224.5 179.21875 C 223.863281 179.277344 223.265625 179.175781 222.679688 178.929688 C 217.902344 176.765625 212.910156 175.203125 207.953125 173.527344 C 203.945312 172.089844 199.824219 171.066406 195.695312 170.035156 C 195.5625 169.980469 195.363281 169.925781 195.292969 169.789062 C 199.808594 169.625 204.4375 170.519531 208.9375 170.605469 C 208.929688 170.574219 208.921875 170.53125 208.902344 170.519531 C 208.28125 170.21875 207.609375 170.070312 206.941406 169.921875 C 201.371094 168.570312 195.554688 167.984375 189.953125 167.175781 C 196.363281 166.320312 203.238281 166.914062 209.796875 167.003906 C 209.796875 167.011719 209.796875 167.019531 209.796875 167.027344 C 219.304688 167.6875 229.007812 166.308594 238.316406 168.871094 Z M 146.128906 153.484375 C 148.730469 152.828125 151.359375 152.28125 154.003906 151.835938 C 165.03125 150.019531 176.300781 150.550781 187.40625 151.253906 C 191.714844 151.644531 195.972656 152.394531 200.125 153.609375 C 201.105469 153.890625 202.039062 154.265625 202.941406 154.742188 C 208.554688 157.695312 214.039062 160.890625 219.269531 164.484375 C 219.40625 164.574219 219.523438 164.683594 219.644531 164.789062 C 219.667969 164.824219 219.644531 164.929688 219.589844 164.941406 C 214.164062 164.945312 191.160156 164.460938 185.144531 165.238281 C 179.710938 166.269531 174.195312 165.949219 168.695312 165.964844 C 165.847656 165.996094 163.007812 166.265625 160.171875 166.5 C 158.605469 166.632812 157.046875 166.8125 155.5 167.101562 C 154.875 167.226562 154.476562 166.269531 154.082031 165.890625 C 151.105469 162.058594 147.90625 158.316406 146.007812 153.804688 C 145.949219 153.683594 146.015625 153.519531 146.128906 153.484375 Z M 154.148438 169.191406 C 154.136719 169.25 154.125 169.347656 154.089844 169.359375 C 153.816406 169.457031 153.546875 169.578125 153.261719 169.628906 C 151.949219 169.855469 150.644531 170.128906 149.34375 170.425781 C 149.167969 170.46875 148.769531 170.445312 148.902344 170.167969 C 149.152344 169.789062 149.199219 169.128906 149.796875 169.1875 C 150.441406 169.21875 153.300781 169.136719 154.082031 169.136719 C 154.105469 169.140625 154.148438 169.175781 154.148438 169.191406 Z M 140.226562 152.246094 C 141.175781 154.308594 142.597656 156.28125 143.511719 158.425781 C 143.632812 158.699219 143.738281 158.945312 143.570312 159.253906 C 143.574219 161.957031 143.921875 164.703125 144.074219 167.417969 C 144.117188 167.976562 143.652344 167.992188 143.597656 167.460938 C 143.375 164.738281 143.164062 162.015625 142.996094 159.292969 C 142.964844 158.691406 142.816406 158.136719 142.519531 157.621094 C 141.605469 156.046875 140.671875 154.480469 139.757812 152.90625 C 139.527344 152.609375 139.972656 152.363281 140.226562 152.246094 Z M 125.019531 158.746094 C 126.695312 156.460938 128.640625 153.738281 131.707031 153.441406 C 133.5625 153.257812 135.429688 153.207031 137.289062 153.296875 C 137.699219 153.328125 137.773438 153.78125 137.921875 154.085938 C 139.375 157.929688 141.035156 157.355469 138.039062 157.710938 C 136.066406 158.011719 134.617188 159.246094 133.507812 160.851562 C 133.398438 160.988281 133.25 161.03125 133.132812 161.019531 C 129.957031 160.449219 126.824219 160.726562 123.710938 160.957031 C 123.542969 160.671875 124.796875 159.136719 125.019531 158.746094 Z M 138.027344 174.03125 C 138.242188 174.269531 141.183594 175.972656 142.039062 176.167969 C 142.277344 176.28125 142.058594 176.542969 141.867188 176.496094 C 141.296875 176.238281 137.722656 174.191406 137.441406 173.851562 C 137.371094 173.753906 137.386719 173.640625 137.476562 173.617188 C 138.535156 173.304688 139.636719 173.097656 140.667969 172.710938 C 140.824219 172.636719 140.769531 172.390625 140.632812 172.304688 C 139.226562 171.285156 138.105469 169.945312 136.855469 168.753906 C 136.621094 168.527344 136.585938 168.53125 136.265625 168.71875 C 136.089844 168.8125 135.628906 169.148438 135.839844 168.695312 C 136.234375 168.109375 136.195312 168.039062 135.609375 167.597656 C 134.140625 166.4375 132.460938 165.542969 130.566406 165.375 C 127.304688 164.96875 124.03125 165.320312 120.769531 165.523438 C 120.28125 165.5 120.90625 164.839844 121.015625 164.636719 C 122.121094 162.847656 124.265625 162.03125 126.285156 161.867188 C 128.988281 161.800781 132.625 161.289062 134.789062 163.207031 C 136.1875 164.539062 137.203125 166.199219 138.394531 167.707031 C 138.457031 168.175781 137.761719 167.476562 137.664062 167.351562 C 133.902344 162.769531 133.75 162.175781 127.472656 162.371094 C 125.765625 162.546875 123.964844 162.71875 122.515625 163.722656 C 122.136719 163.984375 121.816406 164.308594 121.574219 164.699219 C 121.515625 165.015625 121.96875 164.898438 122.171875 164.910156 C 126.472656 164.894531 131.421875 163.804688 135.160156 166.457031 C 135.773438 166.777344 136.507812 167.828125 137.171875 167.746094 C 137.523438 167.765625 137.003906 168.113281 137.273438 168.367188 C 142.335938 173.125 142.570312 174.5625 142.542969 175.070312 C 142.539062 175.128906 142.410156 175.238281 142.351562 175.152344 C 142.21875 174.929688 141.46875 173.808594 141.261719 173.441406 C 141.082031 173.261719 140.757812 173.316406 140.519531 173.289062 C 140.160156 173.289062 137.679688 173.484375 138.027344 174.03125 Z M 135.390625 171.417969 C 135.300781 171.5625 135.085938 171.4375 134.929688 171.414062 C 133.796875 171.261719 129.066406 170.796875 127.816406 170.679688 C 127.386719 170.5625 127.378906 169.976562 127.1875 169.640625 C 126.988281 169.304688 132.492188 169.285156 133.539062 169.25 C 133.824219 169.242188 134.027344 169.34375 134.195312 169.585938 C 134.507812 170.039062 134.851562 170.476562 135.179688 170.921875 C 135.289062 171.074219 135.511719 171.226562 135.390625 171.417969 Z M 114.246094 162.824219 C 115.53125 162.765625 116.535156 161.925781 117.523438 161.199219 C 118.828125 160.226562 120.128906 159.246094 121.433594 158.269531 C 121.589844 158.1875 121.851562 157.9375 122.019531 157.996094 C 122.136719 158.082031 121.976562 158.21875 121.925781 158.308594 C 120.921875 159.476562 120.125 160.777344 119.457031 162.160156 C 119.1875 162.546875 118.597656 164.457031 118.167969 164.347656 C 116.585938 163.957031 115.015625 163.515625 113.378906 163.410156 C 112.996094 163.328125 112.480469 163.359375 112.175781 163.113281 C 112.472656 162.765625 113.726562 162.925781 114.246094 162.824219 Z M 102.597656 163.121094 C 103.839844 163.160156 113.417969 163.546875 116.777344 164.640625 C 116.851562 164.671875 116.898438 164.785156 116.9375 164.867188 C 116.945312 164.882812 116.859375 164.960938 116.804688 164.984375 C 115.9375 165.324219 115.042969 165.5 114.117188 165.328125 C 113.28125 165.171875 102.003906 163.960938 99.007812 163.300781 C 100.179688 163.128906 101.402344 163.050781 102.597656 163.121094 Z M 100.136719 195.238281 C 99.695312 194.234375 99.773438 194.894531 99.140625 195.109375 C 98.175781 195.199219 97.15625 196.296875 96.355469 196.832031 C 95.980469 197.054688 96.035156 197.40625 96.078125 197.78125 C 96.074219 197.78125 96.074219 197.78125 96.070312 197.78125 C 96.136719 199.207031 96.515625 198.261719 97.109375 198.261719 C 97.402344 198.296875 97.828125 198.339844 97.941406 198.660156 C 98.015625 199.082031 97.996094 199.503906 97.847656 199.910156 C 97.667969 200.515625 96.710938 200.578125 96.453125 200.007812 C 96.253906 199.496094 96.242188 199.210938 96.847656 199.066406 C 96.96875 198.964844 96.878906 198.835938 96.746094 198.816406 C 96.464844 198.820312 96.027344 199.003906 96.027344 199.328125 C 96.089844 199.613281 95.675781 199.75 95.777344 200.003906 C 96.710938 201.613281 97.664062 203.207031 98.84375 204.652344 C 99.089844 204.945312 99.257812 204.539062 99.328125 204.328125 C 99.496094 203.800781 99.722656 203.292969 99.808594 202.742188 C 99.816406 202.710938 99.851562 202.683594 99.875 202.65625 C 99.808594 207.46875 95.136719 217.167969 89.589844 211.558594 C 87.046875 208.84375 86.328125 205.03125 85.746094 201.488281 C 85.019531 195.632812 85.328125 189.304688 88.542969 184.175781 C 90.851562 180.417969 94.929688 180.152344 97.269531 183.894531 C 98.949219 186.367188 99.570312 189.363281 100.058594 192.261719 C 100.054688 192.519531 100.585938 195.6875 100.136719 195.238281 Z M 152.230469 214.148438 C 146.109375 214.046875 139.988281 214.292969 133.867188 214.351562 C 133.867188 214.359375 133.867188 214.367188 133.867188 214.375 C 126.441406 214.554688 119.007812 214.761719 111.601562 215.359375 C 111.234375 215.265625 111.664062 214.914062 111.847656 214.746094 C 117.492188 209.214844 112.113281 209.476562 121.074219 210.390625 C 129.46875 211.296875 137.878906 212.070312 146.261719 213.058594 C 146.808594 213.164062 156.445312 214.039062 152.230469 214.148438 Z M 157.3125 185.9375 C 155.445312 186.730469 153.386719 186.617188 151.414062 186.359375 C 150.832031 186.261719 150.246094 186.203125 149.660156 186.128906 C 149.28125 186.089844 149.066406 185.980469 149.199219 185.597656 C 149.375 184.96875 149.554688 184.34375 149.734375 183.71875 C 149.851562 183.324219 149.933594 183.035156 150.453125 183.136719 C 153.117188 183.449219 155.785156 183.75 158.449219 184.074219 C 158.695312 184.074219 158.976562 184.195312 159.195312 184.03125 C 158.964844 183.429688 155.519531 183.203125 154.703125 183 C 153.28125 182.804688 151.847656 182.628906 150.410156 182.554688 C 150.226562 182.539062 150.121094 182.457031 150.140625 182.34375 C 150.257812 181.71875 151.070312 182.085938 151.503906 182.066406 C 152.800781 182.226562 154.097656 182.402344 155.398438 182.554688 C 156.179688 182.648438 156.960938 182.75 157.722656 182.929688 C 157.828125 182.964844 158.375 183.003906 158.1875 182.792969 C 154.332031 181.101562 150.019531 180.648438 145.886719 180 C 145.332031 179.929688 144.789062 179.828125 144.238281 179.746094 C 144.117188 179.726562 143.972656 179.859375 143.996094 179.988281 C 144.117188 181.027344 144.449219 182.015625 144.863281 182.976562 C 145.121094 183.617188 145.320312 184.265625 145.359375 184.960938 C 145.597656 187.914062 145.742188 190.878906 145.945312 193.839844 C 146.289062 196.574219 146.214844 196.957031 145.402344 199.597656 C 145.15625 200.691406 145.0625 200.695312 146.195312 200.988281 C 148.09375 201.472656 149.996094 201.96875 151.871094 202.539062 C 152.054688 202.617188 152.335938 202.679688 152.4375 202.851562 C 149.984375 202.652344 147.503906 201.839844 145.023438 201.566406 C 144.894531 201.558594 144.757812 201.683594 144.773438 201.800781 C 145.074219 203.566406 145.371094 205.332031 145.664062 207.097656 C 145.714844 207.402344 145.617188 207.496094 145.289062 207.46875 C 134.992188 205.785156 124.710938 203.964844 114.40625 202.332031 C 114.039062 202.296875 113.796875 202.117188 113.65625 201.789062 C 112.894531 200.164062 112.28125 198.480469 111.519531 196.855469 C 111.335938 196.5 111.121094 196.191406 110.796875 195.945312 C 107.824219 193.242188 106.488281 189.203125 105.84375 185.339844 C 105.769531 184.960938 105.78125 184.566406 105.761719 184.175781 C 105.753906 184.0625 105.886719 183.957031 106.035156 183.960938 C 106.101562 183.96875 106.230469 184.046875 106.210938 184.136719 C 105.859375 185.566406 106.746094 188.210938 107.203125 189.652344 C 107.859375 191.371094 108.707031 192.976562 109.886719 194.398438 C 110.058594 194.601562 110.753906 195.472656 110.753906 194.753906 C 109.726562 191.355469 108.773438 187.933594 108.371094 184.394531 C 108.160156 183.402344 108.28125 183.34375 107.226562 183.484375 C 106.113281 183.546875 102.90625 183.410156 103.230469 182.980469 C 103.722656 182.648438 106.835938 182.601562 107.777344 182.523438 C 107.921875 182.511719 108.015625 182.28125 107.9375 182.136719 C 107.6875 181.65625 106.792969 181.753906 106.3125 181.636719 C 104.585938 181.46875 102.867188 181.21875 101.128906 181.238281 C 101.019531 181.234375 100.914062 181.410156 100.949219 181.527344 C 101.15625 182.054688 101.558594 183.710938 102.191406 183.734375 C 103.144531 183.675781 104.089844 183.667969 105.019531 183.910156 C 105.554688 183.988281 104.484375 186.277344 103.757812 186.300781 C 102.597656 186.316406 102.75 186.398438 102.175781 185.367188 C 100.464844 182.101562 98.996094 178.542969 96.152344 176.0625 C 91.042969 171.648438 86.222656 175.324219 84.253906 180.707031 C 84.140625 180.980469 84.039062 181.253906 83.921875 181.519531 C 83.585938 182.046875 83.046875 181.578125 83.03125 181.101562 C 82.917969 179.453125 82.980469 177.765625 83.261719 176.136719 C 83.296875 175.90625 83.390625 175.75 83.496094 175.757812 C 83.703125 175.769531 83.972656 175.945312 83.957031 176.167969 C 83.675781 176.699219 83.550781 177.285156 83.789062 177.855469 C 83.898438 178.203125 84.28125 178.472656 84.625 178.246094 C 85.074219 177.996094 86.039062 177.125 85.714844 176.589844 C 85.132812 175.957031 84.398438 175.523438 83.699219 175.046875 C 82.820312 174.695312 85.265625 169.636719 85.683594 168.925781 C 86.664062 167.296875 87.800781 165.402344 89.832031 165.039062 C 93.53125 164.242188 97.355469 163.789062 101.136719 164.132812 C 104.367188 164.40625 118.40625 167.144531 118.621094 166.988281 C 118.195312 166.558594 117.492188 166.488281 116.953125 166.222656 C 116.777344 166.15625 116.511719 166.15625 116.507812 165.914062 C 116.507812 165.707031 118.875 165.289062 119.699219 165.339844 C 120.316406 165.460938 120.398438 166.25 120.699219 166.707031 C 121.207031 167.972656 121.960938 168.507812 123.144531 169.105469 C 123.242188 169.175781 123.097656 169.277344 123.046875 169.28125 C 120.804688 168.84375 118.613281 168.144531 116.378906 167.640625 C 113.019531 166.828125 109.617188 166.019531 106.164062 165.769531 C 104.078125 165.710938 94.757812 165.316406 95.339844 168.601562 C 95.472656 168.855469 95.554688 169.203125 95.316406 169.417969 C 94.972656 169.765625 92.472656 171.996094 91.847656 172.988281 C 91.816406 173.230469 92.238281 173.246094 92.457031 173.316406 C 96.058594 173.964844 98.359375 177.023438 100.207031 179.914062 C 100.480469 180.503906 102.886719 180.183594 103.519531 180.082031 C 104.292969 179.980469 103.839844 178.125 103.757812 177.570312 C 103.394531 176.015625 102.980469 174.472656 102.289062 173.019531 C 102.09375 172.609375 101.917969 172.183594 101.902344 171.714844 C 101.824219 170.917969 104.421875 171.390625 105 171.328125 C 106.253906 171.339844 107.519531 167.527344 107.699219 167.210938 C 108.070312 166.449219 109.707031 167.609375 110.25 167.101562 C 110.570312 167.019531 110.304688 168.253906 110.273438 168.449219 C 109.964844 169.75 109.664062 171.050781 109.394531 172.359375 C 109.335938 172.609375 109.394531 172.863281 109.664062 172.871094 C 110.726562 173.074219 119.871094 172.800781 119.445312 173.890625 C 118.835938 174.378906 115.054688 175.359375 114.640625 176.273438 C 114.304688 177.019531 134.214844 177.914062 143.292969 178.894531 C 143.464844 178.914062 143.585938 178.769531 143.660156 178.621094 C 143.984375 177.875 144.3125 177.128906 144.632812 176.382812 C 144.789062 176.023438 145.988281 172.71875 145.226562 172.890625 C 144.570312 173.183594 143.90625 173.460938 143.265625 173.785156 C 143.015625 173.910156 142.867188 173.851562 142.742188 173.585938 C 142.480469 173.027344 142.21875 172.464844 141.941406 171.910156 C 141.8125 171.65625 141.863281 171.492188 142.113281 171.347656 C 142.261719 171.265625 142.234375 171.085938 142.089844 171.066406 C 141.574219 170.984375 141.191406 170.695312 140.839844 170.34375 C 140.378906 169.882812 139.917969 169.421875 139.457031 168.957031 C 139.425781 168.925781 139.425781 168.863281 139.414062 168.8125 C 139.878906 168.949219 140.332031 169.128906 140.828125 169.097656 C 143.414062 169.136719 146 169.109375 148.585938 169.160156 C 148.667969 169.164062 148.78125 169.296875 148.75 169.359375 C 148.511719 169.785156 148.273438 170.214844 148.027344 170.632812 C 147.78125 170.929688 147.3125 170.945312 146.96875 171.085938 C 146.433594 171.238281 145.894531 171.378906 145.363281 171.535156 C 144.757812 171.785156 144.949219 172.035156 145.460938 172.003906 C 153.050781 169.921875 160.859375 168.558594 168.683594 167.6875 C 175.285156 167.097656 181.910156 168.039062 188.371094 169.351562 C 190.285156 169.757812 212.0625 174.660156 199.457031 172.582031 C 197.863281 172.460938 196.269531 172.128906 194.664062 172.285156 C 193.859375 172.335938 193.105469 172.207031 192.355469 171.953125 C 188.164062 170.574219 183.863281 169.464844 179.480469 168.90625 C 172.886719 167.949219 166.1875 168.507812 159.644531 169.605469 C 155.207031 170.226562 150.808594 171.113281 146.449219 172.140625 C 145.976562 172.25 145.972656 172.800781 145.910156 173.1875 C 145.820312 174.34375 145.480469 175.421875 145.027344 176.480469 C 144.675781 177.289062 144.367188 178.113281 144.039062 178.929688 C 144.027344 178.957031 144.027344 179.015625 144.035156 179.019531 C 144.089844 179.042969 144.167969 179.082031 144.199219 179.0625 C 144.429688 178.914062 144.675781 178.867188 144.941406 178.839844 C 146.816406 178.589844 148.765625 178.863281 150.589844 178.292969 C 151.085938 177.925781 149.34375 177.089844 149.089844 176.9375 C 148.351562 176.449219 146.457031 175.992188 146.488281 174.953125 C 146.746094 173.515625 146.460938 173.554688 147.839844 173.199219 C 151.359375 172.140625 155.03125 171.761719 158.675781 171.476562 C 160.082031 171.34375 161.492188 171.484375 162.886719 171.664062 C 165.160156 171.984375 162.066406 175.574219 161.636719 176.613281 C 161.140625 177.652344 162.972656 175.542969 163.132812 175.421875 C 164.320312 174.210938 169.847656 169.25 171.152344 171.683594 C 171.316406 172.238281 171.710938 173.609375 171.152344 174.003906 C 165.238281 175.3125 162.371094 178.800781 159.847656 184.054688 C 159.378906 185.042969 158.269531 185.519531 157.3125 185.9375 Z M 189.886719 211.664062 C 187.722656 216.511719 183.25 220.535156 177.90625 221.414062 C 158.273438 224.292969 153.863281 193.519531 169.039062 185.253906 C 173.820312 182.457031 180.132812 183.207031 184.453125 186.554688 C 185.664062 187.433594 186.25 188.875 186.761719 190.226562 C 186.84375 190.710938 186.53125 190.433594 186.359375 190.230469 C 184.554688 187.851562 182.148438 186.082031 179.257812 185.265625 C 178.882812 185.179688 178.296875 184.914062 178.179688 185.46875 C 177.976562 186.292969 177.761719 187.113281 177.59375 187.941406 C 176.742188 191.746094 176.804688 195.644531 176.617188 199.511719 C 176.632812 199.703125 176.847656 199.738281 176.992188 199.691406 C 177.6875 199.582031 178.117188 200.375 178.296875 200.933594 C 178.363281 201.195312 178.472656 201.421875 178.652344 201.617188 C 178.796875 201.832031 179.875 200.875 180.101562 200.746094 C 182.570312 198.59375 185.1875 196.652344 187.925781 194.859375 C 188.171875 194.691406 188.324219 194.753906 188.414062 195.070312 C 188.59375 195.445312 188.316406 195.769531 188.003906 195.945312 C 186.839844 196.679688 185.902344 197.707031 184.722656 198.429688 C 184.371094 198.703125 181.3125 200.621094 181.871094 200.945312 C 182.359375 200.972656 186.433594 201.09375 186.136719 200.421875 C 186.125 200.359375 186.121094 200.289062 186.097656 200.226562 C 185.804688 199.503906 186.167969 198.976562 186.625 198.476562 C 186.730469 198.359375 186.976562 198.375 187.054688 198.507812 C 187.40625 199.0625 187.554688 199.707031 187.792969 200.308594 C 188.28125 201.917969 189.425781 199.6875 189.550781 201.40625 C 189.5625 201.660156 189.753906 202.078125 189.363281 202.140625 C 188.089844 202.167969 186.8125 202.113281 185.535156 202.125 C 183.1875 202.019531 180.945312 202.785156 178.628906 202.925781 C 178.496094 202.917969 178.382812 203.011719 178.332031 203.144531 C 178.027344 203.964844 177.550781 204.707031 177.207031 205.507812 C 178.125 205.886719 179.378906 208.875 179.921875 209.800781 C 180.757812 211.507812 182.074219 212.902344 183.222656 214.402344 C 183.726562 215 184.269531 215.566406 184.800781 216.140625 C 184.929688 216.277344 185.113281 216.289062 185.238281 216.175781 C 186.46875 215.09375 187.285156 213.632812 188.195312 212.292969 C 188.929688 211.125 189.40625 209.839844 189.691406 208.488281 C 189.71875 208.363281 189.734375 208.230469 189.769531 208.109375 C 189.871094 207.910156 190.039062 207.9375 190.046875 208.179688 C 190.054688 209.347656 190.371094 210.5625 189.886719 211.664062 Z M 178.195312 199.035156 C 178.8125 199.292969 179.101562 200.664062 179.703125 199.554688 C 179.757812 199.5 179.832031 199.527344 179.855469 199.601562 C 180.007812 200.039062 179.382812 200.582031 178.960938 200.472656 C 178.582031 200.136719 178.269531 199.6875 178.03125 199.234375 C 177.96875 199.109375 178.082031 199.0625 178.195312 199.035156 Z M 177.238281 196.996094 C 177.207031 196.949219 177.15625 196.910156 177.15625 196.863281 C 177.160156 196.152344 177.171875 195.433594 177.179688 194.722656 C 177.191406 194.722656 177.199219 194.722656 177.207031 194.722656 C 177.355469 193.777344 176.984375 191.054688 178.375 191.074219 C 178.527344 191.210938 178.519531 191.410156 178.460938 191.59375 C 178.03125 193.382812 177.761719 195.261719 177.238281 196.996094 Z M 178.742188 197.796875 C 178.332031 197.695312 178.125 197.566406 178.175781 196.949219 C 178.480469 195.277344 179.011719 193.328125 179.554688 191.671875 C 179.660156 191.410156 179.6875 191.054688 180.011719 190.984375 C 181.570312 191.199219 182.761719 192.195312 183.511719 193.542969 C 183.546875 193.609375 183.539062 193.761719 183.492188 193.804688 C 183.109375 194.136719 182.949219 194.613281 182.6875 195.019531 C 182.246094 195.707031 181.894531 196.441406 181.523438 197.167969 C 181.335938 197.546875 181.109375 197.910156 181.039062 198.335938 C 181.027344 198.417969 180.886719 198.476562 180.796875 198.4375 C 180.132812 198.136719 179.449219 197.945312 178.742188 197.796875 Z M 189.425781 204.207031 C 189.320312 205.390625 189.152344 204.894531 188.894531 204.140625 C 188.820312 203.898438 188.382812 204.449219 188.023438 204.339844 C 187.824219 204.359375 187.601562 204.167969 187.800781 204.007812 C 188.210938 203.820312 188.683594 203.808594 189.070312 203.570312 C 189.417969 203.46875 189.382812 204 189.425781 204.207031 Z M 184.933594 210.21875 C 184.445312 210.804688 182.898438 212.566406 182.132812 211.753906 C 181.3125 210.863281 180.691406 209.820312 180.152344 208.742188 C 180.132812 208.707031 180.191406 208.632812 180.207031 208.578125 C 181.671875 208.796875 183.015625 209.648438 184.503906 209.84375 C 184.679688 209.886719 185.0625 209.960938 184.933594 210.21875 Z M 179.480469 204.929688 C 179.277344 205.433594 178.417969 205.378906 178.285156 204.847656 C 178.253906 204.644531 178.40625 203.871094 178.695312 204.007812 C 178.910156 204.28125 179.457031 204.597656 179.480469 204.929688 Z M 191.128906 213.523438 C 190.859375 212.992188 190.722656 212.429688 190.71875 211.832031 C 190.695312 209.417969 190.710938 207.003906 190.398438 204.605469 C 189.789062 197.71875 188.503906 190.742188 185.074219 184.640625 C 181.191406 177.148438 171.421875 171.535156 164.355469 178.519531 C 164.085938 178.753906 163.199219 179.832031 162.9375 179.785156 C 164.648438 176.707031 168.332031 174.875 171.796875 174.59375 C 177.261719 174.710938 181.480469 178.1875 184.480469 182.398438 C 184.960938 183.007812 184.984375 183.019531 185.785156 183.128906 C 188.835938 183.507812 191.863281 184.078125 194.9375 184.265625 C 196.675781 184.332031 198.148438 183.226562 199.71875 182.648438 C 200.191406 182.902344 197.335938 184.144531 196.953125 184.28125 C 194.644531 185.144531 192.140625 184.257812 189.78125 184.039062 C 183.125 183.1875 185.578125 182.414062 187.847656 189.007812 C 190.34375 196.046875 191.257812 203.578125 191.277344 211.019531 C 191.265625 211.9375 191.316406 212.839844 191.636719 213.714844 C 191.570312 214.085938 191.191406 213.710938 191.128906 213.523438 Z M 192.050781 190.988281 C 190.785156 190.582031 190.226562 189.902344 190.195312 188.570312 C 190.183594 188.457031 190.335938 188.3125 190.449219 188.320312 C 190.839844 188.355469 191.234375 188.375 191.617188 188.433594 C 194.542969 188.921875 197.480469 189.367188 200.367188 190.050781 C 201.410156 190.296875 202.464844 190.558594 203.398438 191.113281 C 204.042969 191.558594 203.46875 191.929688 202.929688 191.9375 C 201.957031 191.984375 201.339844 192.011719 200.28125 192 C 197.699219 191.921875 194.703125 191.71875 192.050781 190.988281 Z M 256.234375 221.03125 C 256.203125 221.035156 256.171875 221.042969 256.136719 221.042969 C 249.78125 221.269531 243.519531 221.511719 237.140625 221.566406 C 228.332031 221.566406 219.414062 221.371094 210.640625 220.367188 C 208.113281 220.074219 205.542969 219.90625 203.0625 219.355469 C 203.015625 219.332031 202.980469 219.273438 202.9375 219.234375 C 206.585938 219.03125 210.261719 218.988281 213.917969 218.75 C 216.460938 218.578125 219.03125 218.671875 221.550781 218.261719 C 222.171875 218.160156 222.644531 217.828125 222.960938 217.296875 C 223.210938 216.878906 223.433594 216.445312 223.652344 216.007812 C 223.75 215.8125 223.894531 215.707031 224.109375 215.699219 C 227.445312 215.695312 230.78125 215.570312 234.109375 215.292969 C 238.0625 215.066406 241.996094 214.625 245.941406 214.324219 C 246.394531 214.269531 246.390625 214.796875 246.566406 215.078125 C 247.441406 216.804688 248.929688 215.308594 249.753906 216.066406 C 251.574219 218.070312 253.785156 219.730469 256.273438 220.816406 C 256.363281 220.871094 256.34375 221.03125 256.234375 221.03125 Z M 271.003906 214.289062 C 268.519531 216.53125 266.089844 217.464844 262.753906 217.640625 C 261.230469 217.621094 257.800781 216.769531 256.855469 215.648438 C 256.863281 215.625 256.898438 215.59375 256.917969 215.59375 C 257.4375 215.632812 257.957031 215.664062 258.476562 215.714844 C 260.394531 215.933594 262.316406 216.128906 264.246094 215.925781 C 264.625 215.8125 264.644531 215.703125 264.128906 215.648438 C 258.292969 214.523438 267.054688 214.441406 268.335938 214.164062 C 269.214844 214.078125 270.089844 214.003906 270.972656 213.9375 C 271.152344 213.953125 271.125 214.203125 271.003906 214.289062 Z M 291.734375 206.582031 C 290.953125 207.046875 289.996094 207.125 289.132812 207.382812 C 286.28125 208.125 283.546875 209.242188 280.636719 209.773438 C 267.03125 212.675781 252.992188 212.15625 239.160156 211.785156 C 239.160156 211.792969 239.160156 211.796875 239.160156 211.804688 C 226.054688 210.941406 212.785156 211.828125 199.800781 209.578125 C 199.78125 209.570312 199.769531 209.519531 199.773438 209.488281 C 199.785156 209.433594 199.855469 209.398438 199.910156 209.394531 C 208.894531 208.875 217.910156 209.289062 226.902344 209.523438 C 228.144531 209.59375 229.101562 209.214844 230.167969 208.640625 C 231.023438 208.214844 231.925781 207.929688 232.851562 207.707031 C 233.417969 207.570312 233.976562 208.050781 233.933594 208.632812 C 233.925781 208.71875 233.859375 208.828125 233.785156 208.871094 C 233.507812 209.089844 231.257812 209.949219 231.730469 210.363281 C 243.28125 211.46875 255.03125 211.332031 266.640625 210.90625 C 272.804688 210.335938 279.085938 209.75 284.96875 207.730469 C 285.191406 207.628906 285.652344 207.511719 285.511719 207.1875 C 285 206.285156 283.9375 206.226562 283.023438 206.035156 C 282.679688 205.929688 282.140625 205.9375 282.089844 205.480469 C 282.058594 205.25 282.253906 205.128906 282.445312 205.113281 C 284.382812 205.007812 286.035156 205.121094 287.3125 206.769531 C 287.683594 207.234375 290.058594 206.480469 290.636719 206.371094 C 290.886719 206.273438 291.847656 206.089844 291.734375 206.582031 Z M 291.734375 206.582031 " fill-opacity="1" fill-rule="nonzero"/></g><path fill="#000000" d="M 143.203125 179.652344 C 134.273438 178.449219 125.226562 177.628906 116.257812 177.175781 C 116.335938 177.347656 116.585938 177.386719 116.75 177.453125 C 117.574219 177.648438 135.289062 181.171875 143.199219 183.242188 C 143.546875 183.328125 143.90625 183.4375 144.140625 183.71875 C 144.335938 183.925781 144.289062 184.257812 143.976562 184.296875 C 137.410156 185.785156 131.007812 183.40625 124.75 181.707031 C 119.484375 180.453125 114.058594 180.941406 108.710938 181.039062 C 108.371094 181.011719 108.394531 180.578125 108.40625 180.316406 C 108.535156 177.976562 108.542969 175.632812 108.832031 173.304688 C 109.027344 171.625 109.621094 170.011719 109.925781 168.347656 C 109.957031 168.144531 110.007812 167.835938 109.769531 167.738281 C 109.253906 167.535156 108.714844 167.390625 108.164062 167.304688 C 107.730469 167.234375 106.3125 172.527344 106.378906 173.714844 C 106.472656 174.546875 107.5625 174.175781 108.128906 174.34375 C 108.316406 174.410156 108.378906 174.644531 108.339844 174.828125 C 108.121094 176.117188 108.160156 177.425781 108.089844 178.726562 C 108.011719 181.113281 108.691406 183.441406 108.945312 185.800781 C 109.375 189.171875 110.425781 192.410156 111.460938 195.632812 C 111.953125 197.015625 112.542969 198.359375 113.101562 199.71875 C 113.355469 200.316406 113.640625 200.90625 113.910156 201.496094 C 114.027344 201.75 114.214844 201.898438 114.507812 201.945312 C 123.269531 203.285156 143.515625 206.753906 144.902344 206.996094 C 145.25 207.042969 145.226562 206.660156 145.167969 206.429688 C 144.957031 205.109375 144.742188 203.789062 144.535156 202.472656 C 144.457031 201.980469 144.523438 201.5 144.679688 201.027344 C 145.214844 199.066406 145.917969 197.0625 145.691406 195.003906 C 145.46875 191.492188 145.222656 187.980469 144.894531 184.476562 C 144.84375 183.921875 144.703125 183.390625 144.472656 182.875 C 144.074219 181.980469 143.746094 181.0625 143.652344 180.074219 C 143.625 179.777344 143.511719 179.695312 143.203125 179.652344 Z M 108.085938 173.878906 C 107.382812 174.058594 105.941406 173.601562 107.574219 173.488281 C 107.753906 173.503906 107.949219 173.519531 108.144531 173.535156 C 108.421875 173.585938 108.289062 173.875 108.085938 173.878906 Z M 145.148438 196.121094 C 145.285156 196.132812 145.441406 196.320312 145.441406 196.53125 C 145.359375 197.328125 144.722656 201.074219 144.03125 201.328125 C 138.824219 200.300781 133.617188 199.113281 128.410156 198.03125 C 128.164062 197.933594 126.054688 197.640625 126.972656 197.253906 C 130.636719 196.582031 134.375 196.410156 138.089844 196.214844 C 140.441406 196.109375 142.800781 196.070312 145.148438 196.121094 Z M 145.148438 196.121094 " fill-opacity="1" fill-rule="nonzero"/><path fill="#000000" d="M 173.699219 200.503906 C 173.8125 200.558594 173.96875 200.519531 174.050781 200.414062 C 174.433594 199.925781 174.832031 199.453125 175.292969 199.035156 C 175.960938 198.410156 175.222656 197.847656 175.152344 197.152344 C 175.046875 196.640625 174.921875 196.136719 174.777344 195.632812 C 174.761719 195.335938 173.863281 193.140625 174.097656 194.542969 C 174.28125 195.199219 174.480469 195.851562 174.660156 196.515625 C 174.710938 196.976562 175.15625 197.757812 174.578125 198.023438 C 174.054688 198.234375 173.730469 198.613281 173.605469 199.164062 C 173.597656 199.269531 173.390625 199.375 173.328125 199.363281 C 173.058594 199.242188 172.796875 199.105469 172.554688 198.949219 C 172.128906 198.617188 172.675781 197.921875 172.757812 197.5 C 173.058594 196.65625 173.164062 195.796875 172.949219 194.910156 C 172.917969 194.519531 172.519531 193.808594 172.847656 193.511719 C 173.089844 193.34375 173.410156 193.21875 173.300781 192.863281 C 173.234375 192.542969 173.175781 192.222656 173.105469 191.90625 C 172.609375 189.78125 172.113281 187.660156 171.621094 185.535156 C 171.582031 185.402344 171.464844 185.347656 171.308594 185.390625 C 168.011719 186.5 165.308594 189.007812 163.59375 191.984375 C 163.402344 192.304688 163.417969 192.445312 163.644531 192.6875 C 166.542969 195.78125 169.808594 198.71875 173.699219 200.503906 Z M 173.699219 200.503906 " fill-opacity="1" fill-rule="nonzero"/><path fill="#000000" d="M 177.15625 205.515625 C 177.171875 205.515625 177.191406 205.519531 177.207031 205.523438 C 177.210938 205.515625 177.214844 205.515625 177.214844 205.507812 C 177.203125 205.503906 177.191406 205.5 177.179688 205.496094 C 177.175781 205.503906 177.167969 205.507812 177.15625 205.515625 Z M 177.15625 205.515625 " fill-opacity="1" fill-rule="nonzero"/><path fill="#000000" d="M 174.867188 205.613281 C 174.523438 205.628906 174.34375 205.792969 174.195312 206.078125 C 172.476562 208.328125 170.675781 210.546875 169.410156 213.101562 C 168.769531 214.523438 167.875 215.859375 167.578125 217.410156 C 167.53125 217.648438 167.734375 217.835938 167.910156 217.960938 C 170.261719 219.582031 173.058594 220.542969 175.941406 220.335938 C 176.765625 220.296875 177.5625 220.128906 178.351562 219.914062 C 178.574219 219.855469 178.671875 219.6875 178.628906 219.46875 C 178.472656 218.667969 178.316406 217.871094 178.164062 217.070312 C 177.535156 213.84375 176.742188 210.644531 176.320312 207.375 C 176.105469 206.683594 176.070312 206.75 175.734375 207.3125 C 175.339844 207.675781 175.171875 207.082031 175.234375 206.765625 C 175.3125 206.238281 176.042969 206.425781 176.382812 206.203125 C 176.679688 206.042969 176.875 205.714844 177.15625 205.515625 C 176.394531 205.382812 175.632812 205.605469 174.867188 205.613281 Z M 175.226562 208.632812 C 175.226562 208.625 175.226562 208.617188 175.226562 208.613281 C 175.503906 208.617188 175.886719 208.539062 175.945312 208.914062 C 176.101562 209.78125 176.246094 210.648438 176.40625 211.511719 C 176.558594 212.3125 176.75 213.105469 177.089844 213.847656 C 177.144531 213.96875 177.019531 214.125 176.890625 214.109375 C 172.390625 213.503906 174.242188 211.742188 172.890625 212.179688 C 172.570312 212.253906 172.199219 212.609375 171.886719 212.367188 C 171.277344 211.792969 172.570312 210.953125 172.945312 210.5625 C 173.164062 210.386719 173.371094 210.265625 173.21875 209.941406 C 173.421875 209.027344 174.289062 208.523438 175.226562 208.632812 Z M 175.226562 208.632812 " fill-opacity="1" fill-rule="nonzero"/><path fill="#000000" d="M 164.691406 204.5625 C 164.976562 206.199219 165.167969 207.851562 165.542969 209.472656 C 165.574219 209.617188 165.65625 209.824219 165.847656 209.722656 C 168.167969 208.320312 170.179688 206.433594 172.753906 205.46875 C 173.515625 205.035156 173.515625 204.023438 173.304688 203.273438 C 173.058594 201.207031 164.636719 200.628906 162.757812 200.492188 C 162.109375 200.507812 161.445312 200.378906 160.804688 200.519531 C 160.160156 201.109375 161.292969 201.671875 161.707031 202.003906 C 162.597656 202.71875 164.410156 203.425781 164.691406 204.5625 Z M 172.199219 203.394531 C 172.65625 203.480469 173.191406 204.660156 172.59375 204.84375 C 172.039062 205 171.800781 203.359375 172.199219 203.394531 Z M 171.289062 202.683594 C 171.175781 202.933594 170.992188 203.097656 170.679688 203.128906 C 169.984375 202.75 171.238281 202.277344 171.289062 202.683594 Z M 171.289062 202.683594 " fill-opacity="1" fill-rule="nonzero"/><path fill="#000000" d="M 162.816406 198.46875 C 163.121094 198.6875 162.042969 198.898438 162.390625 199.179688 C 162.652344 199.324219 162.9375 199.394531 163.230469 199.429688 C 165.507812 199.734375 167.824219 199.851562 170.074219 200.339844 C 170.195312 200.339844 170.367188 200.332031 170.269531 200.203125 C 168.578125 199.042969 167.007812 197.71875 165.410156 196.433594 C 164.433594 195.679688 163.523438 194.828125 162.507812 194.128906 C 162.21875 194.035156 162.121094 194.429688 162.015625 194.621094 C 161.640625 195.519531 161.3125 196.441406 161.105469 197.394531 C 160.476562 199.539062 161.328125 198.410156 162.816406 198.46875 Z M 162.816406 198.46875 " fill-opacity="1" fill-rule="nonzero"/><path fill="#000000" d="M 182.023438 214.914062 C 181.65625 214.417969 181.285156 213.921875 180.925781 213.421875 C 180.609375 212.960938 179.933594 213.332031 179.464844 213.28125 C 178.824219 213.253906 179.859375 212.605469 179.257812 211.992188 C 178.882812 211.601562 177.984375 209.070312 178.140625 211.054688 C 178.128906 211.054688 178.121094 211.054688 178.113281 211.054688 C 178.398438 213.832031 178.617188 216.632812 179.402344 219.320312 C 179.492188 219.601562 179.675781 219.671875 179.921875 219.515625 C 180.027344 219.453125 180.085938 219.273438 180.1875 219.257812 C 181.394531 219.25 182.769531 218.304688 183.667969 217.527344 C 183.773438 217.425781 183.792969 217.285156 183.71875 217.183594 C 183.152344 216.421875 182.589844 215.667969 182.023438 214.914062 Z M 182.023438 214.914062 " fill-opacity="1" fill-rule="nonzero"/><path fill="#000000" d="M 174.910156 193.703125 C 175.078125 193.394531 175.128906 193.023438 175.300781 192.714844 C 176.085938 190.894531 175.933594 188.816406 176.292969 186.890625 C 176.445312 184.726562 177.113281 184.636719 175.195312 184.617188 C 174.605469 184.71875 172.515625 184.640625 172.496094 185.261719 C 173.039062 187.765625 173.625 190.265625 174.382812 192.714844 C 174.507812 193.066406 174.570312 193.492188 174.910156 193.703125 Z M 174.910156 193.703125 " fill-opacity="1" fill-rule="nonzero"/><path fill="#000000" d="M 170.324219 208.550781 C 170.480469 208.433594 172.3125 206.925781 171.539062 207.007812 C 170.074219 207.828125 168.675781 208.835938 167.273438 209.773438 C 166.125 210.578125 165.035156 211.460938 163.921875 212.320312 C 163.820312 212.429688 163.496094 212.65625 163.511719 212.800781 C 163.535156 212.820312 163.578125 212.847656 163.597656 212.835938 C 164.253906 212.503906 164.96875 212.4375 165.746094 212.355469 C 166.105469 212.308594 166.632812 212.609375 166.125 212.933594 C 165.640625 213.414062 166.417969 213.714844 166.605469 214.105469 C 166.835938 214.417969 166.914062 214.828125 167.171875 215.121094 C 167.332031 215.265625 167.449219 214.878906 167.519531 214.769531 C 168.378906 212.871094 169.445312 211.070312 170.378906 209.210938 C 170.621094 208.878906 170.007812 208.730469 170.324219 208.550781 Z M 167.128906 213.582031 C 166.90625 213.726562 166.5625 213.332031 166.898438 213.210938 C 167.085938 213.222656 167.3125 213.414062 167.128906 213.582031 Z M 167.128906 213.582031 " fill-opacity="1" fill-rule="nonzero"/><path fill="#000000" d="M 181.894531 213.300781 C 181.839844 213.207031 181.71875 213.234375 181.722656 213.339844 C 182.324219 214.585938 183.195312 215.695312 183.90625 216.882812 C 184.0625 217.132812 184.417969 216.851562 184.5 216.65625 C 184.4375 216.335938 184.136719 216.132812 183.953125 215.878906 C 183.222656 215.054688 182.507812 214.21875 181.894531 213.300781 Z M 181.894531 213.300781 " fill-opacity="1" fill-rule="nonzero"/><path fill="#000000" d="M 165.984375 216.226562 C 165.886719 216.398438 166.101562 216.765625 166.332031 216.808594 C 166.488281 216.816406 166.570312 216.511719 166.636719 216.460938 C 166.660156 216.09375 166.148438 215.960938 165.984375 216.226562 Z M 165.984375 216.226562 " fill-opacity="1" fill-rule="nonzero"/><path fill="#000000" d="M 204.1875 178.761719 C 204.429688 178.335938 204.648438 177.898438 204.867188 177.460938 C 205.164062 176.871094 205.105469 176.746094 204.472656 176.585938 C 203.601562 176.425781 202.742188 176.25 201.921875 175.917969 C 201.265625 175.777344 201.984375 176.980469 202 177.277344 C 202.144531 177.777344 202.289062 178.277344 202.285156 178.792969 C 202.292969 178.902344 202.246094 178.949219 202.179688 179.023438 C 201.996094 178.742188 202.011719 178.332031 201.917969 178 C 201.59375 176.5625 201.003906 175.558594 199.421875 175.429688 C 198.71875 175.683594 200.347656 175.996094 200.3125 176.679688 C 200.398438 177.742188 200.625 179.65625 199.316406 180.046875 C 198.253906 180.617188 203.449219 181.183594 203.804688 181.339844 C 204.28125 181.425781 204.773438 181.449219 205.261719 181.488281 C 205.308594 181.480469 205.4375 181.351562 205.386719 181.277344 C 204.839844 180.550781 203.597656 179.789062 204.1875 178.761719 Z M 204.1875 178.761719 " fill-opacity="1" fill-rule="nonzero"/><path fill="#000000" d="M 219.335938 181.019531 C 217.621094 180.140625 215.871094 179.339844 214.042969 178.726562 C 213.835938 178.648438 213.496094 178.636719 213.582031 178.949219 C 213.949219 180.171875 213.554688 181.265625 212.714844 182.175781 C 212.648438 182.253906 212.683594 182.394531 212.765625 182.410156 C 215.546875 182.777344 218.359375 182.878906 221.15625 183.128906 C 221.15625 183.140625 221.15625 183.148438 221.152344 183.160156 C 223.203125 183.425781 219.824219 181.195312 219.335938 181.019531 Z M 219.335938 181.019531 " fill-opacity="1" fill-rule="nonzero"/><path fill="#000000" d="M 210.0625 178 C 204.910156 176.402344 208.683594 177.816406 207.84375 180 C 207.710938 180.296875 207.578125 180.59375 207.4375 180.886719 C 207.324219 181.101562 207.027344 181.507812 207.425781 181.59375 C 208.558594 181.773438 209.6875 181.945312 210.820312 182.113281 C 210.988281 182.128906 211.144531 182.082031 211.21875 181.910156 C 210.957031 181.355469 210.53125 180.886719 210.207031 180.367188 C 209.410156 179.34375 210.972656 178.304688 210.0625 178 Z M 210.0625 178 " fill-opacity="1" fill-rule="nonzero"/><path fill="#000000" d="M 207.367188 178.589844 C 207.207031 178.265625 206.746094 177.152344 206.28125 177.433594 C 205.8125 177.757812 205.492188 178.199219 205.261719 178.710938 C 205.140625 178.976562 205.074219 179.261719 205.082031 179.601562 C 205.046875 180.128906 205.441406 180.625 205.761719 181.027344 C 205.957031 181.269531 206.089844 181.269531 206.34375 181.109375 C 207.089844 180.558594 207.746094 179.515625 207.367188 178.589844 Z M 207.367188 178.589844 " fill-opacity="1" fill-rule="nonzero"/><path fill="#000000" d="M 212.90625 178.71875 C 212.042969 177.847656 210.960938 179.238281 210.945312 180.109375 C 210.953125 181.003906 211.953125 182.644531 212.703125 181.347656 C 213.140625 180.511719 213.601562 179.558594 212.90625 178.71875 Z M 212.90625 178.71875 " fill-opacity="1" fill-rule="nonzero"/><path fill="#000000" d="M 94.96875 200.363281 C 95.039062 200.148438 94.769531 199.933594 94.582031 199.863281 C 94.355469 199.777344 93.867188 199.890625 93.859375 199.550781 C 93.859375 199.140625 93.925781 198.628906 93.464844 198.441406 C 92.488281 197.832031 92.175781 199.679688 91.617188 199.035156 C 90.867188 197.945312 93.625 197.96875 93.554688 197.277344 C 93.566406 197.171875 93.464844 197 93.363281 196.957031 C 92.699219 196.703125 91.984375 196.519531 91.351562 196.195312 C 89.65625 195.269531 88.085938 194.144531 86.402344 193.207031 C 85.8125 193.039062 85.984375 194.117188 86.007812 194.464844 C 86.160156 195.109375 86.628906 194.085938 87.742188 194.796875 C 88.457031 195.378906 87.308594 195.847656 86.933594 196.191406 C 86.859375 196.25 86.777344 196.347656 86.84375 196.441406 C 87.269531 196.847656 88.035156 196.117188 88.527344 196.023438 C 88.953125 195.957031 89.515625 196.480469 89.921875 196.65625 C 90.050781 196.726562 90.035156 196.898438 89.902344 196.949219 C 89.378906 197.117188 88.730469 197.117188 88.820312 197.804688 C 88.839844 198.6875 88.917969 199.566406 88.960938 200.441406 C 88.953125 200.441406 88.949219 200.441406 88.941406 200.445312 C 89.011719 200.765625 89.121094 205.492188 89.617188 204.726562 C 90.382812 202.917969 91.898438 201.640625 92.921875 200.011719 C 92.984375 199.902344 93.097656 199.820312 93.199219 199.742188 C 93.238281 199.71875 93.332031 199.726562 93.375 199.761719 C 93.574219 199.9375 93.285156 200.164062 93.183594 200.320312 C 91.816406 201.785156 91.023438 203.660156 89.695312 205.152344 C 89.039062 206.078125 88.898438 207.285156 88.480469 208.328125 C 88.714844 209.160156 90.1875 205.753906 90.320312 205.5 C 90.902344 204.484375 90.675781 207.015625 90.660156 207.261719 C 90.597656 208.273438 89.609375 208.785156 89.0625 209.523438 C 89.019531 209.820312 89.699219 209.988281 89.921875 209.789062 C 90.117188 209.707031 90.445312 209.402344 90.597656 209.6875 C 90.679688 209.886719 90.722656 210.121094 90.632812 210.328125 C 90.472656 210.183594 90.3125 209.859375 90.242188 210.292969 C 90.347656 210.894531 90.660156 211.378906 91.105469 211.785156 C 91.492188 212.070312 91.691406 211.527344 91.859375 211.269531 C 92.121094 210.773438 92.261719 210.238281 92.363281 209.691406 C 92.453125 209.199219 92.515625 209.113281 92.984375 209.328125 C 93.550781 209.589844 94.160156 209.71875 94.785156 209.78125 C 95.105469 209.8125 95.425781 209.902344 95.742188 209.964844 C 95.832031 209.984375 95.875 210.113281 95.828125 210.199219 C 95.71875 210.503906 94.953125 211.441406 95.226562 211.667969 C 96.253906 211.550781 97.636719 208.679688 98.160156 207.777344 C 98.449219 207.015625 99.039062 206.078125 98.582031 205.273438 C 98.148438 204.433594 97.675781 203.621094 97.046875 202.90625 C 96.910156 202.75 96.808594 203.019531 96.6875 203.082031 C 96.5625 202.933594 96.695312 202.660156 96.492188 202.570312 C 96.167969 202.640625 96.523438 204.25 96.574219 204.527344 C 96.769531 205.089844 96.832031 205.652344 96.800781 206.25 C 96.839844 206.753906 97.015625 207.300781 96.925781 207.792969 C 96.125 207.714844 95.714844 205.082031 95.449219 204.355469 C 95.097656 203.054688 94.457031 201.71875 94.96875 200.363281 Z M 93.792969 201.046875 C 93.207031 202.742188 92.675781 204.449219 92.296875 206.207031 C 92.160156 206.777344 92.085938 207.359375 92.054688 207.945312 C 92.128906 208.472656 91.183594 212.765625 91.128906 210.21875 C 91.265625 209.632812 90.917969 209.0625 91.007812 208.488281 C 91.660156 205.964844 92.011719 203.359375 93.285156 201.035156 C 93.382812 200.835938 93.46875 200.617188 93.695312 200.507812 C 93.925781 200.390625 93.8125 200.914062 93.792969 201.046875 Z M 96.792969 203.953125 C 96.828125 203.863281 96.847656 203.804688 96.871094 203.75 C 97.136719 204.121094 96.875 205 96.792969 203.953125 Z M 96.792969 203.953125 " fill-opacity="1" fill-rule="nonzero"/><path fill="#000000" d="M 88.914062 193.578125 C 89.183594 193.863281 89.507812 194.089844 89.882812 194.230469 C 89.921875 194.246094 90.03125 194.199219 90.039062 194.167969 C 90.140625 193.761719 90.222656 193.347656 90.320312 192.9375 C 90.351562 192.796875 90.378906 192.574219 90.574219 192.605469 C 91.0625 192.816406 91.484375 193.625 91.882812 194.023438 C 91.972656 194.140625 92.003906 194.367188 91.875 194.464844 C 91.6875 194.609375 91.175781 194.746094 91.390625 195.054688 C 91.792969 195.585938 92.417969 195.863281 93.042969 196.035156 C 93.621094 196.1875 93.835938 196.039062 93.839844 195.425781 C 94.121094 192.265625 91.640625 189.875 91.160156 186.851562 C 91.117188 186.164062 90.152344 183.605469 90.613281 183.265625 C 91.128906 182.984375 91.679688 183.765625 92.125 183.96875 C 93.359375 184.617188 93.371094 185.105469 93.445312 183.628906 C 93.394531 183.039062 93.742188 182.074219 93.132812 181.984375 C 91.257812 181.566406 88.878906 184.289062 88.136719 185.816406 C 87.613281 187 86.035156 190.292969 86.523438 191.421875 C 87.296875 192.15625 88.195312 192.769531 88.914062 193.578125 Z M 89.265625 191.171875 C 89.285156 191.234375 89.304688 191.289062 89.335938 191.398438 C 89.265625 191.519531 89.105469 192.695312 88.941406 192.566406 C 88.671875 192.492188 89.101562 191.277344 89.265625 191.171875 Z M 89.265625 191.171875 " fill-opacity="1" fill-rule="nonzero"/><path fill="#000000" d="M 98.464844 188.261719 C 98.664062 186.421875 96.261719 182.863281 94.410156 182.394531 C 93.945312 182.527344 94.007812 183.832031 93.902344 184.273438 C 93.507812 187.261719 93.578125 190.355469 94.402344 193.269531 C 94.664062 193.964844 94.953125 195.246094 95.550781 195.675781 C 95.8125 195.351562 95.851562 194.878906 95.945312 194.484375 C 96.347656 192.242188 97.511719 190.304688 98.464844 188.261719 Z M 98.464844 188.261719 " fill-opacity="1" fill-rule="nonzero"/><path fill="#000000" d="M 98.480469 189.472656 C 97.410156 191.257812 96.539062 192.90625 96.125 195.109375 C 96.070312 195.339844 95.964844 195.746094 95.863281 196.160156 C 95.886719 196.34375 96.144531 196.265625 96.226562 196.160156 C 96.945312 195.546875 97.648438 194.917969 98.546875 194.5625 C 98.636719 194.527344 98.71875 194.460938 98.777344 194.382812 C 98.960938 194.140625 99.203125 194.125 99.480469 194.167969 C 100.308594 194.328125 99.144531 189.402344 98.863281 188.941406 C 98.589844 189.015625 98.589844 189.289062 98.480469 189.472656 Z M 98.480469 189.472656 " fill-opacity="1" fill-rule="nonzero"/><path fill="#000000" d="M 93.304688 185.363281 C 93.253906 185.398438 93.183594 185.429688 93.164062 185.476562 C 92.882812 186.242188 92.585938 187 92.34375 187.773438 C 92.136719 188.445312 92.183594 189.121094 92.460938 189.78125 C 94.105469 193.511719 93.4375 190.5 93.503906 188.671875 C 93.511719 188.671875 93.519531 188.671875 93.527344 188.671875 C 93.484375 188.3125 93.660156 185.207031 93.304688 185.363281 Z M 93.304688 185.363281 " fill-opacity="1" fill-rule="nonzero"/></svg>