<svg xmlns="http://www.w3.org/2000/svg" xmlns:xlink="http://www.w3.org/1999/xlink" width="500" zoomAndPan="magnify" viewBox="0 0 375 374.999991" height="500" preserveAspectRatio="xMidYMid meet" version="1.0"><defs><g/><clipPath id="a3cd568f84"><path d="M 102.242188 89.402344 L 270.238281 89.402344 L 270.238281 177.128906 L 102.242188 177.128906 Z M 102.242188 89.402344 " clip-rule="nonzero"/></clipPath><clipPath id="8da1d4189c"><path d="M 102.238281 174.878906 L 270.265625 174.878906 L 270.265625 262.605469 L 102.238281 262.605469 Z M 102.238281 174.878906 " clip-rule="nonzero"/></clipPath><clipPath id="40bc21070b"><path d="M 102.242188 174.878906 L 270.238281 174.878906 L 270.238281 262.605469 L 102.242188 262.605469 Z M 102.242188 174.878906 " clip-rule="nonzero"/></clipPath></defs><g clip-path="url(#a3cd568f84)"><path stroke-linecap="butt" transform="matrix(0.75, 0, 0, 0.75, 102.241169, 89.401019)" fill="none" stroke-linejoin="miter" d="M 0.00135802 0.00176643 L 224.0274 0.00176643 L 224.0274 116.970517 L 0.00135802 116.970517 Z M 0.00135802 0.00176643 " stroke="#000000" stroke-width="8" stroke-opacity="1" stroke-miterlimit="4"/></g><g clip-path="url(#8da1d4189c)"><path fill="#000000" d="M 102.238281 174.878906 L 270.15625 174.878906 L 270.15625 262.605469 L 102.238281 262.605469 Z M 102.238281 174.878906 " fill-opacity="1" fill-rule="nonzero"/></g><g clip-path="url(#40bc21070b)"><path stroke-linecap="butt" transform="matrix(0.75, 0, 0, 0.75, 102.241169, 174.878777)" fill="none" stroke-linejoin="miter" d="M 0.00135802 0.000171912 L 224.0274 0.000171912 L 224.0274 116.968922 L 0.00135802 116.968922 Z M 0.00135802 0.000171912 " stroke="#000000" stroke-width="8" stroke-opacity="1" stroke-miterlimit="4"/></g><g fill="#000000" fill-opacity="1"><g transform="translate(118.237307, 161.130193)"><g><path d="M 16.03125 -54.453125 C 20.488281 -54.453125 23.710938 -53.414062 25.703125 -51.34375 C 27.703125 -49.269531 28.703125 -46.132812 28.703125 -41.9375 L 28.703125 -39.984375 C 28.703125 -37.179688 28.257812 -34.875 27.375 -33.0625 C 26.5 -31.25 25.101562 -29.898438 23.1875 -29.015625 C 25.519531 -28.140625 27.164062 -26.703125 28.125 -24.703125 C 29.082031 -22.703125 29.5625 -20.25 29.5625 -17.34375 L 29.5625 -12.921875 C 29.5625 -8.710938 28.472656 -5.503906 26.296875 -3.296875 C 24.117188 -1.097656 20.878906 0 16.578125 0 L 3.109375 0 L 3.109375 -54.453125 Z M 11.671875 -24.5 L 11.671875 -7.78125 L 16.578125 -7.78125 C 18.023438 -7.78125 19.125 -8.164062 19.875 -8.9375 C 20.625 -9.71875 21 -11.117188 21 -13.140625 L 21 -17.890625 C 21 -20.429688 20.570312 -22.164062 19.71875 -23.09375 C 18.863281 -24.03125 17.453125 -24.5 15.484375 -24.5 Z M 11.671875 -46.671875 L 11.671875 -32.28125 L 15.015625 -32.28125 C 16.617188 -32.28125 17.875 -32.695312 18.78125 -33.53125 C 19.695312 -34.363281 20.15625 -35.867188 20.15625 -38.046875 L 20.15625 -41.078125 C 20.15625 -43.046875 19.800781 -44.46875 19.09375 -45.34375 C 18.394531 -46.226562 17.296875 -46.671875 15.796875 -46.671875 Z M 11.671875 -46.671875 "/></g></g></g><g fill="#000000" fill-opacity="1"><g transform="translate(149.819668, 161.130193)"><g><path d="M 10.96875 -12.53125 C 10.96875 -10.550781 11.367188 -9.160156 12.171875 -8.359375 C 12.972656 -7.554688 14.050781 -7.15625 15.40625 -7.15625 C 16.75 -7.15625 17.820312 -7.554688 18.625 -8.359375 C 19.4375 -9.160156 19.84375 -10.550781 19.84375 -12.53125 L 19.84375 -41.9375 C 19.84375 -43.90625 19.4375 -45.289062 18.625 -46.09375 C 17.820312 -46.894531 16.75 -47.296875 15.40625 -47.296875 C 14.050781 -47.296875 12.972656 -46.894531 12.171875 -46.09375 C 11.367188 -45.289062 10.96875 -43.90625 10.96875 -41.9375 Z M 2.40625 -41.390625 C 2.40625 -45.796875 3.519531 -49.175781 5.75 -51.53125 C 7.988281 -53.894531 11.207031 -55.078125 15.40625 -55.078125 C 19.601562 -55.078125 22.816406 -53.894531 25.046875 -51.53125 C 27.273438 -49.175781 28.390625 -45.796875 28.390625 -41.390625 L 28.390625 -13.0625 C 28.390625 -8.65625 27.273438 -5.269531 25.046875 -2.90625 C 22.816406 -0.550781 19.601562 0.625 15.40625 0.625 C 11.207031 0.625 7.988281 -0.550781 5.75 -2.90625 C 3.519531 -5.269531 2.40625 -8.65625 2.40625 -13.0625 Z M 2.40625 -41.390625 "/></g></g></g><g fill="#000000" fill-opacity="1"><g transform="translate(180.62414, 161.130193)"><g><path d="M 11.28125 -54.453125 L 11.28125 -12.453125 C 11.28125 -10.472656 11.679688 -9.09375 12.484375 -8.3125 C 13.285156 -7.539062 14.363281 -7.15625 15.71875 -7.15625 C 17.0625 -7.15625 18.132812 -7.539062 18.9375 -8.3125 C 19.75 -9.09375 20.15625 -10.472656 20.15625 -12.453125 L 20.15625 -54.453125 L 28.234375 -54.453125 L 28.234375 -12.984375 C 28.234375 -8.578125 27.15625 -5.191406 25 -2.828125 C 22.851562 -0.472656 19.679688 0.703125 15.484375 0.703125 C 11.285156 0.703125 8.109375 -0.472656 5.953125 -2.828125 C 3.796875 -5.191406 2.71875 -8.578125 2.71875 -12.984375 L 2.71875 -54.453125 Z M 11.28125 -54.453125 "/></g></g></g><g fill="#000000" fill-opacity="1"><g transform="translate(211.584183, 161.130193)"><g><path d="M 21.234375 -15.796875 L 27.078125 -54.453125 L 38.96875 -54.453125 L 38.96875 0 L 30.890625 0 L 30.890625 -39.046875 L 24.96875 0 L 16.875 0 L 10.5 -38.515625 L 10.5 0 L 3.03125 0 L 3.03125 -54.453125 L 14.9375 -54.453125 Z M 21.234375 -15.796875 "/></g></g></g><g fill="#ffffff" fill-opacity="1"><g transform="translate(118.237307, 246.607952)"><g><path d="M 16.03125 -54.453125 C 20.488281 -54.453125 23.710938 -53.414062 25.703125 -51.34375 C 27.703125 -49.269531 28.703125 -46.132812 28.703125 -41.9375 L 28.703125 -39.984375 C 28.703125 -37.179688 28.257812 -34.875 27.375 -33.0625 C 26.5 -31.25 25.101562 -29.898438 23.1875 -29.015625 C 25.519531 -28.140625 27.164062 -26.703125 28.125 -24.703125 C 29.082031 -22.703125 29.5625 -20.25 29.5625 -17.34375 L 29.5625 -12.921875 C 29.5625 -8.710938 28.472656 -5.503906 26.296875 -3.296875 C 24.117188 -1.097656 20.878906 0 16.578125 0 L 3.109375 0 L 3.109375 -54.453125 Z M 11.671875 -24.5 L 11.671875 -7.78125 L 16.578125 -7.78125 C 18.023438 -7.78125 19.125 -8.164062 19.875 -8.9375 C 20.625 -9.71875 21 -11.117188 21 -13.140625 L 21 -17.890625 C 21 -20.429688 20.570312 -22.164062 19.71875 -23.09375 C 18.863281 -24.03125 17.453125 -24.5 15.484375 -24.5 Z M 11.671875 -46.671875 L 11.671875 -32.28125 L 15.015625 -32.28125 C 16.617188 -32.28125 17.875 -32.695312 18.78125 -33.53125 C 19.695312 -34.363281 20.15625 -35.867188 20.15625 -38.046875 L 20.15625 -41.078125 C 20.15625 -43.046875 19.800781 -44.46875 19.09375 -45.34375 C 18.394531 -46.226562 17.296875 -46.671875 15.796875 -46.671875 Z M 11.671875 -46.671875 "/></g></g></g><g fill="#ffffff" fill-opacity="1"><g transform="translate(149.819668, 246.607952)"><g><path d="M 10.96875 -12.53125 C 10.96875 -10.550781 11.367188 -9.160156 12.171875 -8.359375 C 12.972656 -7.554688 14.050781 -7.15625 15.40625 -7.15625 C 16.75 -7.15625 17.820312 -7.554688 18.625 -8.359375 C 19.4375 -9.160156 19.84375 -10.550781 19.84375 -12.53125 L 19.84375 -41.9375 C 19.84375 -43.90625 19.4375 -45.289062 18.625 -46.09375 C 17.820312 -46.894531 16.75 -47.296875 15.40625 -47.296875 C 14.050781 -47.296875 12.972656 -46.894531 12.171875 -46.09375 C 11.367188 -45.289062 10.96875 -43.90625 10.96875 -41.9375 Z M 2.40625 -41.390625 C 2.40625 -45.796875 3.519531 -49.175781 5.75 -51.53125 C 7.988281 -53.894531 11.207031 -55.078125 15.40625 -55.078125 C 19.601562 -55.078125 22.816406 -53.894531 25.046875 -51.53125 C 27.273438 -49.175781 28.390625 -45.796875 28.390625 -41.390625 L 28.390625 -13.0625 C 28.390625 -8.65625 27.273438 -5.269531 25.046875 -2.90625 C 22.816406 -0.550781 19.601562 0.625 15.40625 0.625 C 11.207031 0.625 7.988281 -0.550781 5.75 -2.90625 C 3.519531 -5.269531 2.40625 -8.65625 2.40625 -13.0625 Z M 2.40625 -41.390625 "/></g></g></g><g fill="#ffffff" fill-opacity="1"><g transform="translate(180.62414, 246.607952)"><g><path d="M 11.28125 -54.453125 L 11.28125 -12.453125 C 11.28125 -10.472656 11.679688 -9.09375 12.484375 -8.3125 C 13.285156 -7.539062 14.363281 -7.15625 15.71875 -7.15625 C 17.0625 -7.15625 18.132812 -7.539062 18.9375 -8.3125 C 19.75 -9.09375 20.15625 -10.472656 20.15625 -12.453125 L 20.15625 -54.453125 L 28.234375 -54.453125 L 28.234375 -12.984375 C 28.234375 -8.578125 27.15625 -5.191406 25 -2.828125 C 22.851562 -0.472656 19.679688 0.703125 15.484375 0.703125 C 11.285156 0.703125 8.109375 -0.472656 5.953125 -2.828125 C 3.796875 -5.191406 2.71875 -8.578125 2.71875 -12.984375 L 2.71875 -54.453125 Z M 11.28125 -54.453125 "/></g></g></g><g fill="#ffffff" fill-opacity="1"><g transform="translate(211.584183, 246.607952)"><g><path d="M 21.234375 -15.796875 L 27.078125 -54.453125 L 38.96875 -54.453125 L 38.96875 0 L 30.890625 0 L 30.890625 -39.046875 L 24.96875 0 L 16.875 0 L 10.5 -38.515625 L 10.5 0 L 3.03125 0 L 3.03125 -54.453125 L 14.9375 -54.453125 Z M 21.234375 -15.796875 "/></g></g></g></svg>